<svg width="16" height="13" viewBox="0 0 16 13" fill="none" xmlns="http://www.w3.org/2000/svg">
<path d="M5.13008 9.39676L13.5964 0.930425C13.8595 0.667347 14.1943 0.535809 14.6009 0.535809C15.0075 0.535809 15.3423 0.667347 15.6054 0.930425C15.8685 1.1935 16 1.52833 16 1.93491C16 2.34148 15.8685 2.67631 15.6054 2.93939L6.13456 12.4102C5.84757 12.6972 5.51274 12.8407 5.13008 12.8407C4.74743 12.8407 4.4126 12.6972 4.1256 12.4102L0.394678 8.67927C0.1316 8.41619 6.10352e-05 8.08137 6.10352e-05 7.67479C6.10352e-05 7.26822 0.1316 6.93339 0.394678 6.67031C0.657756 6.40723 0.992583 6.27569 1.39916 6.27569C1.80573 6.27569 2.14056 6.40723 2.40364 6.67031L5.13008 9.39676Z" fill="#292D32"/>
</svg>
